<svg xmlns="http://www.w3.org/2000/svg" fill="none" viewBox="0 0 64 64"><defs><clipPath id="a" class="frame-clip frame-clip-def"><rect width="64" height="64" rx="0" ry="0"/></clipPath></defs><g clip-path="url(#a)"><g class="fills"><rect width="64" height="64" class="frame-background" rx="0" ry="0"/></g><g class="frame-children"><rect width="48" height="64" x="8" fill="#1030a0" class="fills" rx="4" ry="4"/><rect width="40" height="40" x="12" y="4" fill="#fff" class="fills" rx="4" ry="4"/><path fill="#000" d="M35.33 20.5v-2.83a14.62 14.62 0 0 1 2.82-.88 15.12 15.12 0 0 1 3.02-.29c.72 0 1.43.06 2.12.17.7.1 1.38.25 2.04.41v2.67a11.9 11.9 0 0 0-2.02-.56 11.85 11.85 0 0 0-2.14-.19c-1.06 0-2.07.13-3.04.4s-1.9.63-2.8 1.1Zm0 9.17v-2.84a14.69 14.69 0 0 1 2.82-.87 15.2 15.2 0 0 1 3.02-.3c.72 0 1.43.06 2.12.17.7.11 1.38.25 2.04.42v2.67c-.66-.25-1.34-.44-2.02-.57a11.85 11.85 0 0 0-2.14-.18 11.4 11.4 0 0 0-5.83 1.5Zm0-4.59v-2.83a14.62 14.62 0 0 1 2.82-.88 15.2 15.2 0 0 1 3.02-.29c.72 0 1.43.06 2.12.17.7.11 1.38.25 2.04.42v2.66a11.8 11.8 0 0 0-2.02-.56 11.85 11.85 0 0 0-2.14-.19c-1.06 0-2.07.14-3.05.4s-1.9.63-2.79 1.1Zm-12.5 5.59a16.58 16.58 0 0 1 7.5 1.75V16a14.25 14.25 0 0 0-3.62-1.5 15.3 15.3 0 0 0-6.86-.2c-.98.19-1.93.48-2.85.87v16.5a18.77 18.77 0 0 1 2.9-.75c.95-.17 1.93-.25 2.93-.25Zm10.84 1.75a18.3 18.3 0 0 1 3.68-1.32 16.58 16.58 0 0 1 3.82-.43 17.07 17.07 0 0 1 5.83 1v-16.5a14.41 14.41 0 0 0-2.85-.88 15.32 15.32 0 0 0-6.86.21 14.25 14.25 0 0 0-3.62 1.5v16.42ZM32 37.33a16 16 0 0 0-4.33-2.46 13.67 13.67 0 0 0-4.84-.87 13.08 13.08 0 0 0-3.43.46 15.07 15.07 0 0 0-3.23 1.29c-.59.3-1.15.3-1.7-.04a1.61 1.61 0 0 1-.8-1.46V14.17c0-.3.07-.6.23-.88a1.44 1.44 0 0 1 .68-.62 17.36 17.36 0 0 1 4-1.5c1.4-.34 2.8-.5 4.25-.5a17.93 17.93 0 0 1 9.17 2.5 17.93 17.93 0 0 1 9.17-2.5 18.12 18.12 0 0 1 8.25 2c.3.14.53.34.68.62.16.28.23.57.23.88v20.08a1.6 1.6 0 0 1-.8 1.46 1.6 1.6 0 0 1-1.7.04 15.07 15.07 0 0 0-3.23-1.3 13.08 13.08 0 0 0-3.43-.45c-1.67 0-3.28.3-4.84.88A16 16 0 0 0 32 37.33Zm-8.33-13.91Z" class="fills"/></g></g></svg>